<svg xmlns="http://www.w3.org/2000/svg" width="900" height="1200" viewBox="0 0 900 1200" fill="none">
  <defs>
    <linearGradient id="bg" x1="0" y1="0" x2="1" y2="1">
      <stop offset="0%" stop-color="#172554" />
      <stop offset="58%" stop-color="#050815" />
      <stop offset="100%" stop-color="#02030A" />
    </linearGradient>
    <radialGradient id="glow" cx="54%" cy="18%" r="72%">
      <stop offset="0%" stop-color="#93C5FD" stop-opacity="0.40" />
      <stop offset="70%" stop-color="#93C5FD" stop-opacity="0.12" />
      <stop offset="100%" stop-color="#93C5FD" stop-opacity="0" />
    </radialGradient>
    <pattern id="grid" width="56" height="56" patternUnits="userSpaceOnUse">
      <path d="M56 0H0V56" fill="none" stroke="#FFFFFF" stroke-opacity="0.06" stroke-width="1" />
    </pattern>
    <filter id="cardShadow" x="-20%" y="-20%" width="140%" height="140%">
      <feDropShadow dx="0" dy="22" stdDeviation="28" flood-color="#000000" flood-opacity="0.56" />
    </filter>
    <filter id="badgeGlow" x="-40%" y="-40%" width="180%" height="180%">
      <feGaussianBlur stdDeviation="10" result="blur" />
      <feColorMatrix in="blur" type="matrix" values="0 0 0 0 0.576 0 0 0 0 0.773 0 0 0 0 0.992 0 0 0 0.75 0" />
    </filter>
  </defs>

  <rect width="900" height="1200" fill="url(#bg)" />
  <rect width="900" height="1200" fill="url(#glow)" />
  <rect width="900" height="1200" fill="url(#grid)" opacity="0.35" />

  <g filter="url(#cardShadow)">
    <rect x="84" y="96" width="732" height="1008" rx="64" fill="#0B1020" fill-opacity="0.74" stroke="#FFFFFF" stroke-opacity="0.12" />
  </g>

  <rect x="120" y="140" width="660" height="44" rx="22" fill="#050815" fill-opacity="0.65" stroke="#FFFFFF" stroke-opacity="0.10" />
  <text x="152" y="170" fill="#93C5FD" font-family="Arial, sans-serif" font-size="22" letter-spacing="6" font-weight="700">GAMING SUBSCRIPTION</text>

  <g transform="translate(120 230)">
    <circle cx="88" cy="88" r="88" fill="#93C5FD" fill-opacity="0.16" stroke="#93C5FD" stroke-opacity="0.55" />
    <circle cx="88" cy="88" r="68" fill="#050815" fill-opacity="0.55" />
    <path d="M88 44c32 0 56 24 56 56s-24 56-56 56-56-24-56-56c0-18 8-34 22-44" stroke="#93C5FD" stroke-width="10" stroke-linecap="round" opacity="0.9" />
    <path d="M64 66c14-10 32-12 46-6" stroke="#93C5FD" stroke-width="10" stroke-linecap="round" opacity="0.8" />
    <circle cx="120" cy="88" r="8" fill="#93C5FD" opacity="0.9" />
  </g>

  <text x="120" y="500" fill="#FFFFFF" font-family="Arial, sans-serif" font-size="92" font-weight="800" letter-spacing="1">Ubisoft+</text>
  <text x="120" y="562" fill="#D6E6FF" font-family="Arial, sans-serif" font-size="32" font-weight="500">Premium access delivered as a secure digital code.</text>

  <g filter="url(#badgeGlow)">
    <rect x="120" y="640" width="300" height="58" rx="29" fill="#93C5FD" fill-opacity="0.18" stroke="#93C5FD" stroke-opacity="0.55" />
  </g>
  <text x="160" y="679" fill="#FFFFFF" font-family="Arial, sans-serif" font-size="24" font-weight="800" letter-spacing="2">INSTANT DELIVERY</text>

  <rect x="120" y="738" width="660" height="2" fill="#FFFFFF" fill-opacity="0.10" />

  <text x="120" y="816" fill="#AFC3FF" font-family="Arial, sans-serif" font-size="26">Secure checkout and clear redemption steps.</text>
  <text x="120" y="860" fill="#AFC3FF" font-family="Arial, sans-serif" font-size="22" opacity="0.9">Single-seller guarantee. Verified stock.</text>

  <g opacity="0.92">
    <rect x="120" y="946" width="352" height="56" rx="28" fill="#FFFFFF" fill-opacity="0.06" stroke="#FFFFFF" stroke-opacity="0.12" />
    <text x="152" y="982" fill="#FFFFFF" font-family="Arial, sans-serif" font-size="20" font-weight="700" letter-spacing="4">NEXUS VERIFIED STOCK</text>
  </g>

  <circle cx="770" cy="250" r="150" fill="#93C5FD" fill-opacity="0.10" />
  <circle cx="820" cy="990" r="170" fill="#00D4FF" fill-opacity="0.08" />
</svg>
